<?xml version="1.0" encoding="utf-8"?>
<!-- Generator: Adobe Illustrator 22.0.1, SVG Export Plug-In . SVG Version: 6.00 Build 0)  -->
<svg version="1.1" baseProfile="basic" xmlns="http://www.w3.org/2000/svg" xmlns:xlink="http://www.w3.org/1999/xlink" x="0px"
	 y="0px" viewBox="0 0 403.5 381" xml:space="preserve">
<style type="text/css">
	.st0{fill:#FFFFFF;}
	.st1{fill:none;stroke:#FFFFFF;stroke-width:2;stroke-miterlimit:10;}
	.st2{fill:#CCCCCC;}
	.st3{fill:#939393;}
	.st4{opacity:0.75;fill:none;stroke:#FFFFFF;stroke-miterlimit:10;}
	.st5{fill:#232323;}
	.st6{fill:#425CBB;}
	.st7{fill:url(#SVGID_1_);}
	.st8{fill:#F4F4F4;}
	.st9{fill:#EFCACA;}
	.st10{fill:#F5BA00;}
	.st11{fill:#FF735F;}
	.st12{fill:#E5C1C1;}
	.st13{fill:none;stroke:#19034D;stroke-miterlimit:10;}
	.st14{fill:#19034D;}
	.st15{fill:url(#SVGID_2_);}
	.st16{fill:url(#SVGID_3_);}
	.st17{fill:url(#SVGID_4_);}
	.st18{fill:url(#SVGID_5_);}
	.st19{opacity:0.49;fill:url(#SVGID_6_);}
	.st20{fill:#F5F5F5;}
	.st21{fill:#D76A2F;}
	.st22{fill:#228F4E;}
	.st23{fill:none;stroke:#425CBB;stroke-width:2;stroke-miterlimit:10;}
	.st24{fill:none;stroke:#F4F4F4;stroke-width:2;stroke-miterlimit:10;}
	.st25{fill:none;stroke:#E2E2E2;stroke-width:2;stroke-miterlimit:10;}
	.st26{fill:none;stroke:#F5F5F5;stroke-width:2;stroke-miterlimit:10;}
	.st27{fill:#A8DBD4;}
	.st28{fill:#A9D0C9;}
	.st29{fill:#0B2333;}
	.st30{fill:#ED4B39;}
	.st31{fill:url(#SVGID_7_);}
	.st32{fill:#F7CCBC;}
	.st33{fill:#F3A88E;}
	.st34{fill:#E8BDB1;}
	.st35{fill:#EDC5B9;}
	.st36{fill:none;stroke:#0B2333;stroke-miterlimit:10;}
	.st37{fill:url(#SVGID_8_);}
	.st38{fill:url(#SVGID_9_);}
	.st39{fill:url(#SVGID_10_);}
	.st40{fill:url(#SVGID_11_);}
	.st41{opacity:0.49;fill:url(#SVGID_12_);}
	.st42{fill:#FF5655;}
	.st43{fill:#FC5759;}
	.st44{fill:none;}
	.st45{fill:#3D8B98;}
	.st46{fill:none;stroke:#A8DBD4;stroke-width:2;stroke-miterlimit:10;}
</style>
<g id="BACKGROUND">
	<rect id="XMLID_28_" x="-568" y="-47.3" class="st0" width="500" height="500"/>
</g>
<g id="OBJEKTS">
	<g id="XMLID_55_">
	</g>
	<g id="XMLID_122_">
	</g>
	<path class="st1" d="M-353.3,221.3h-98c-12.7,0-23-10.3-23-23v-7.8c0-12.7,10.3-23,23-23h75c12.7,0,23,10.3,23,23V221.3z"/>
	<path class="st2" d="M-250.9,361.5c27.6-9.7,54.2-26.3,71.7-50.6c21.4-29.6,19.5-63.2,23.9-97.8c1.8-14.1,11.2-22.2,16.8-34.6
		c11.8-26.3,7.6-65.9-17.2-83.8c-15.3-11-30.1-12.2-38.4-31.4c-4.6-10.6-7.2-22.2-14.3-31.3c-10.3-13.2-27.7-18.4-44.1-20.9
		c-19.2-3-37.9-2.4-57.1-2.9c-20.5-0.6-41.3-0.1-61.2,5.4c-27,7.4-56.7,26.7-61.4,56.2c-2,12.6,0.6,26.1-4.2,37.9
		c-7.2,17.8-26.4,23.9-40.8,34.4c-15.4,11.3-25.4,29-29.8,47.3c-7.5,31.3-2,66,12.6,94.4c15.6,30.4,40.9,56.3,71.5,71.5
		c24,11.9,57.2,15.4,84.3,17.1C-309,374-278.8,371.3-250.9,361.5z"/>
	<path class="st3" d="M-180.4,239.4c-0.2-44.7-12.5-87.6-48.9-116.4c-44.9-35.5-107.6-35.1-153.4-1.9c-30,21.7-51,54.3-62.8,89.4
		c-11.8,35.1-14.8,72.6-13.6,109.6l273,0.9c1.1-12.5,2.3-25.1,3.4-37.6C-181.4,268.8-180.3,254.1-180.4,239.4z"/>
	<path class="st4" d="M-338.3,216.3h-98c-12.7,0-23-10.3-23-23v-7.8c0-12.7,10.3-23,23-23h75c12.7,0,23,10.3,23,23V216.3z"/>
	<path class="st4" d="M-239.4,127.4h-135.1c-16.8,0-30.5-13.6-30.5-30.5V86.6c0-16.8,13.6-30.5,30.5-30.5h104.7
		c16.8,0,30.5,13.6,30.5,30.5V127.4z"/>
	<path class="st5" d="M-412.6,312.8c-0.3-0.3-0.8-0.6-1.2-0.9c-1.4-1.1-1.7-3.1-1.9-4.9c-1.8-22,1.5-44.2,0.4-66.2
		c-0.2-5.3-4.5-2.7-8-2c-0.5,0.1-7.4,1.4-7.3,0.6c-0.6,6.3-1.4,13-5.6,17.7c-2.9,3.3-7,5.2-10.6,7.6c-13.6,9.2-21.5,26.9-23.4,42.9
		c0-0.4-0.1-0.7-0.1-1.1c-0.3-3.2-0.5-6.4-0.6-9.6c-0.3-6.7-0.4-13.4-0.3-20.1c0.1-5,0.7-10.5-2.3-14.8c-2.6-3.7-5.4-4-9.1-4.3
		c-1-2-0.8-5.9-0.8-7.7c0-2.9,0.5-6.1,2.6-8.3c3.4-3.6,8.7-1.4,13.1-2.5c9.8-2.5,6.3-15,5.7-22.2c-0.4-4.4-7.4-4.5-7,0
		c0.3,3.6,1,7.4,1,11c0,2.3,0,3.8-2.4,4.6c-1,0.3-2.4,0-3.4,0c-5.1,0-9.5,1.1-12.8,5.2c-3.5,4.5-4.1,10.3-3.5,15.8
		c0.4,4.2,0.6,10,5.7,10.9c4.7,0.8,6.2,1.8,6.3,6.8c0.1,3.4-0.2,6.8-0.2,10.2c0,7.7,0.2,15.4,0.8,23c0.3,4.4-0.4,12.3,3.3,15.6
		c1.9,1.6,4.1,1.7,5.9,0.8c5.8,0.3,19.6-0.5,21.1-0.5h17.8c3,0,8.2,1,11.1-0.4c1.5-0.8,4.3-2.3,5.4-3.6
		C-411.9,315.6-411.7,313.8-412.6,312.8z"/>
	<path class="st6" d="M-415,247.3c0-1.8,0-3.6-0.1-5.4c0-0.3-0.1-0.7-0.1-1c-0.1-0.4-0.2-0.7-0.3-1.1c-1.3-2.5-5.9-0.3-7.7,0.5
		c-2,1-3.8,2.3-5.6,3.6c-1,0.8-2.2,1.7-2.7,2.9c-0.6,1.3-0.2,3.3-0.1,4.7c0.1,1,0.3,2.1,0.9,2.9s1.8,1.3,2.7,0.7
		c0.2,1.1,0.4,2.2,0.9,3.2c0.4,0.8,1.1,1.3,2,1.5c0.6,0.2,0.5,0.1,0.7,0.7c0,0,0,0,0,0.1c0.1,0.5,0.3,0.9,0.5,1.3c0,0,0,0.1,0,0.1
		c0.2,0.3,0.3,0.6,0.6,0.8c0.1,0.1,0.3,0.2,0.5,0.3c0,0,0,0,0,0c0,0,0,0,0,0c0.3,0.2,0.7,0.3,1.1,0.4c1,0.1,2.1-0.2,2.6-1.1
		c0.6-1,0.5-2.1,0.4-3.2c0.8,0,1.5-0.4,1.8-1.3c0.4-0.8,0.3-1.9,0.3-2.8c0-1.1,0-2.1-0.1-3.2C-414.6,252-415,248.7-415,247.3z"/>
	<linearGradient id="SVGID_1_" gradientUnits="userSpaceOnUse" x1="-448.6159" y1="307.4146" x2="-416.0858" y2="292.5229">
		<stop  offset="0" style="stop-color:#19034D;stop-opacity:0.9148"/>
		<stop  offset="0.5554" style="stop-color:#311573;stop-opacity:0"/>
	</linearGradient>
	<path class="st7" d="M-438.1,283.1c3.5,2.1,5.9,6.4,5.4,10.6c-0.4,4.3-3.9,7.8-7,10.4c-3.3,2.8-7,5.3-9.1,9.1
		c2.2-0.3,4.4-0.4,6.5-0.5c1.9-0.1,4,0.1,5.1,1.6c1.1,1.6,0.5,3.8,0.8,5.7c0.2,0.1,0.5,0.1,0.7-0.1c0.1,0.5,0.1,0.5,0.6,0.5
		c1.7-0.1,3.2-1.4,4-3c0.8-1.6,1.1-3.3,1.3-5.1c0.7-6.2,1.1-12.5,0.7-18.8c-0.1-2-0.4-4-1.4-5.7C-432,284.9-434.8,282.8-438.1,283.1
		z"/>
	<path class="st5" d="M-446.8,225c-0.1-0.3-0.2-0.6-0.3-0.9c0,0.1,0.8,0.4,1,0.5c0.4,0.2,0.7,0.4,1.1,0.6c0.7,0.4,1.4,0.8,2.1,1.2
		c0.7,0.4,1.4,0.8,2.1,1.3c0.3,0.2,0.5,0.4,0.8,0.3c0.5-0.1,1-0.4,1.5-0.6c0.6-0.2,1.2-0.5,1.8-0.7c1.2-0.5,2.4-1,3.6-1.4
		c2.4-0.9,4.8-1.9,7.1-2.9c0.9-0.4,3-0.9,3.3-1.9c0.1-0.4,0.1-0.7,0.1-1.1c0.1-1.9,0.5-5.5,0.5-5.5s1.4,1.2,1.7,1.5
		c0.5,0.6,1,1.3,1.5,1.9c1,1.3,1.8,2.6,2.6,4.1c1.7,3,3.1,6.1,4.2,9.3c0.9,2.6,1.4,5.2-0.3,7.5c-1.6,2.2-4.2,3.5-6.5,4.7
		c-4.8,2.5-9.9,5.2-15.3,5.7c-1.4,0.1-2.8,0.1-4-0.5c-1.2-0.6-2.1-1.8-2.8-3.1C-444.3,238.7-445,231.7-446.8,225z"/>
	<path class="st8" d="M-420.1,238.7c-1.6-0.5-3.2-0.6-4.8-1.1c0.1-0.2,0.2-0.3,0.3-0.5c0.2-0.4,0.5-0.8,0.7-1.3
		c0.2-0.3,0-0.6-0.3-0.7c-0.5-0.2-1.4,0.3-1.9,0.5c-0.8,0.3-1.5,0.6-2.2,1c-0.4,0.2-0.3,0.8,0.1,0.9c0.7,0.2,1.3,0.4,2,0.6
		c-0.7,1.7-1.3,3.4-1.8,5.2c-0.2,0.6,0.8,0.9,1,0.3c0.5-1.7,1-3.4,1.7-5c1.6,0.5,3.3,0.6,4.9,1.1
		C-419.8,239.9-419.5,238.9-420.1,238.7z"/>
	<path class="st8" d="M-433.9,234.5c-0.2-0.1-0.5-0.1-0.6,0c-0.1,0-0.3,0-0.4,0.2c-0.1,0.1-0.2,0.3-0.2,0.4c0,0.1-0.1,0.2-0.1,0.2
		c0,0.2,0,0.3,0.1,0.4c0.1,0.1,0.1,0.3,0.3,0.4c0.4,0.4,1.1,0.2,1.4-0.3C-433,235.4-433.3,234.7-433.9,234.5z"/>
	<path class="st8" d="M-418.9,228.5c-0.2-0.1-0.5-0.1-0.6,0c-0.1,0-0.3,0-0.4,0.2c-0.1,0.1-0.2,0.3-0.2,0.4c0,0.1-0.1,0.2-0.1,0.2
		c0,0.2,0,0.3,0.1,0.4c0.1,0.1,0.1,0.3,0.3,0.4c0.4,0.4,1.1,0.2,1.4-0.3C-418,229.4-418.3,228.7-418.9,228.5z"/>
	<path class="st4" d="M-194.7,182.8h-71.1v-24.4c0-13.5,10.9-24.4,24.4-24.4h46.7c13.5,0,24.4,10.9,24.4,24.4v0
		C-170.3,171.8-181.2,182.8-194.7,182.8z"/>
	<path class="st9" d="M-393,293.4c-1.9,6.5-3.5,14.1,0.3,19.7c4.6,6.7,15.3,6.7,22,1.9c6.7-4.7,10.3-12.6,13.4-20.2
		c5.2-12.8,9.8-25.9,11.6-39.6c1.1-8,0.1-17.9-7.1-21.4c-11.2-5.4-20.7,3.2-24.3,12.7C-383,262-388.3,277.6-393,293.4z"/>
	<path class="st10" d="M-359.1,211c-2.9,3.1-5.4,6.4-7.7,9.9c-3.1,4.9-5.3,10.1-7.7,15.4c-0.9,1.8-8.1,17.8-6.5,18.9
		c9.1,6.5,18.1,13.7,28.5,17.7c0.4,0.1-1.6,7.8-1.8,8.5c-0.7,2.8-1.4,5.7-1.9,8.5c-1.1,5.7-2,11.5-3,17.2c-0.6,3.2-1.1,6.4-1.6,9.6
		c-0.2,1.4,45.2,4.5,49.3,4.5c12,0.2,30.9,3.6,38.2-8.7c1.7-2.9,2.6-6.2,3.4-9.5c4.5-19.3,6.4-39.2,6-59c-0.1-4.7-0.4-9.3-1.5-13.8
		c-1.6-6.6-5.1-12.5-8.7-18.1c-3.3-5.2-8.5-8-14-10.7c-16.5-7.9-36.5-10.5-53.2-3.1C-348.2,201.2-354.1,205.7-359.1,211z"/>
	<path class="st11" d="M-283.6,257.8c-0.5,1-0.9,2.1-1.4,3.1c-1.7,4-6.1,11-6.1,15.4c-2,6.4-3,13.3-1.8,19.9
		c0.5,2.6,1.3,5.2,2.2,7.8c1.1,3.2,2.3,6.4,4.3,9.2c1.8,2.4,6.2,6.3,9.6,5c3.5-1.4,6.2-7.8,7.5-11c8-18.8,11.2-39.5,13.1-59.8
		c0.1-1.4,0.3-2.9,0-4.3c-0.4-2.1-1.8-3.8-3.1-5.5c-1.8-2.2-3.8-4.5-6.6-5c-2.6-0.5-5.4,0.9-7.2,2.9c-1.8,2-2.9,4.5-4,7
		C-279.2,247.6-281.4,252.7-283.6,257.8z"/>
	<path class="st10" d="M-269,255.6c-1.5-0.4-23.1-5.7-23.1-3c0.2-11.7,0.8-23.4,1.9-35.1c0.4-3.7,0.8-7.5,2.2-10.9
		c1.4-3.5,4-6.6,7.4-7.9c2.6-1,5.4-0.9,8.1-0.3c8.5,1.8,15.6,8.8,17.7,17.2c0.9,3.6,0.9,7.4,0.9,11.1c-0.1,11-0.9,22-1.6,33
		C-260.1,259.6-264.6,256.9-269,255.6z"/>
	<path class="st12" d="M-258.1,196.3c0.3,1,0.5,2,0.6,3.1c0.5,7-4.2,12.9-8.8,17.6c-1.8,1.9-4.4,3.1-6,5.1c-1.9,2.2-1.8,5.8-5,6.8
		c-1.4,0.4-3-0.1-4-1.2c-1.2-1.3-1.2-2.8-0.6-4.4c0.7-1.9,1.3-4.3,2.5-5.9c0.9-1.3,2.7-2.2,4.1-3c2.7-1.6,4.9-4.7,5.3-7.8
		c0.8-5.9,0-12.6,2-18.2c0.4-1,0.8-1.9,1.6-2.6c0.8-0.7,1.9-1.1,2.9-0.7c1.4,0.5,2,2.2,2.5,3.6
		C-260.1,191.1-258.8,193.6-258.1,196.3z"/>
	<path class="st12" d="M-265.8,270.5c0.7,12.6,0.5,25.5-2.9,37.8c-1,3.7-2.7,8.9-6.3,10.9c-4,2.3-10.3,0.4-14-1.7
		c-2.5-1.4-4.8-3.1-6.4-5.5c-2.4-3.7-2.6-8.5-2.3-12.9c0.8-12,3.7-23.1,6.1-34.8c2.5-12.7,5.5-25.3,8.9-37.9
		c1.4-5.3,3.3-9.3,7.8-12.7c3.2-2.4,8.5-5.6,8.8,0.7C-265.2,233.1-266.8,251.8-265.8,270.5z"/>
	<path class="st9" d="M-316.2,206.5c-0.4,0.7-0.7,1.4-0.9,2.1c-0.2,1-0.1,2,0,2.9c0.9,7.3,2.4,14.5,10.3,16.8
		c5.2,1.5,11.6,1,16.4-1.7c1.5-0.9,3-1.8,4.2-3.1c1.2-1.3,2.1-2.9,2.1-4.7c5.3,1.2,10.7-4.2,13.4-8c6.3-8.8,8.4-19.9,7.4-30.5
		c-0.2-2.6-0.6-5.4-2.2-7.5c-1.1-1.5-2.7-2.5-4.2-3.5c-7.2-4.6-14.9-4.9-22.7-1.2c-7.1,3.3-12.1,10.4-15.5,17.2
		c-1.4,2.9-1.6,6.7-2.8,9.7c-1.3,3.6-3,7.1-5,10.4C-315.9,205.9-316.1,206.2-316.2,206.5z"/>
	<path class="st5" d="M-306.3,169.5c1.6-3.6,4-7,7-9c5.4-3.8,13.2-3.1,19.3-1.7c3.5,0.8,7,2.3,10.7,2.3c3.3,0,6.7-3.3,9.9-2.2
		c1.4,0.5,2.5,1.7,2.8,3.2c0.5,2.4-1,4.7-2.1,6.9c-0.9,1.7-1.7,3.5-2.8,5.1c-1.5,2-4,3.7-6.5,4c-0.9,0.1-1.7,0-2.6-0.1
		c-5.2-0.5-9.5-2-13.5,2.1c-2.7,2.8-4,6.6-6,9.8c-0.5,0.8-1,1.6-1.8,2.1c-1,0.6-2.4,0.6-3.5,0.9c-5.1,1.2-8.5,9.8-13.9,7.9
		c-4.6-1.6-3.6-5.8-1.8-9.1c2.3-4.2,1.8-9.2,2.5-13.9C-308.4,175.1-307.5,172.2-306.3,169.5z"/>
	<path class="st9" d="M-305,189.4c-1.2,1.6-1.8,3.5-2.2,5.4c-0.3,1.7-0.5,3.4,0,5s1.8,3.1,3.5,3.4c1.3,0.2,2.7-0.3,3.7-1.2
		c2.4-2.1,5.2-8.5,4.5-11.8C-296.5,185.5-302.7,186.4-305,189.4z"/>
	<path class="st13" d="M-300.3,191.1c-1.3,0.5-2.3,1.6-3,2.9c-0.6,1.3-0.9,2.7-1.1,4.1"/>
	<path class="st14" d="M-266.4,192.1c0.1,0.6-0.2,1.3-0.9,1.4c-0.6,0.1-1.3-0.2-1.4-0.9c-0.1-0.6,0.2-1.3,0.9-1.4
		C-267.1,191.1-266.5,191.5-266.4,192.1z"/>
	<path class="st14" d="M-279.5,193.1c0.1,0.6-0.3,1.2-1,1.3c-0.6,0.1-1.2-0.3-1.3-1c-0.1-0.6,0.3-1.2,1-1.3
		C-280.2,192-279.6,192.5-279.5,193.1z"/>
	<linearGradient id="SVGID_2_" gradientUnits="userSpaceOnUse" x1="-293.351" y1="322.9091" x2="-279.137" y2="291.943">
		<stop  offset="0" style="stop-color:#201B59;stop-opacity:0.9148"/>
		<stop  offset="0.5554" style="stop-color:#FFCC00;stop-opacity:0"/>
	</linearGradient>
	<path class="st15" d="M-296.5,289.3c-0.5,3.3-0.9,6.5-1.1,9.8c-0.3,4.5-0.2,9.2,2.3,12.9c1.6,2.4,3.9,4.1,6.4,5.5
		c3.7,2.1,10,4,14,1.7c3.5-2,5.2-7.3,6.3-10.9c1.7-6.2,2.6-12.6,3-19H-296.5z"/>
	<linearGradient id="SVGID_3_" gradientUnits="userSpaceOnUse" x1="-353.4552" y1="267.0624" x2="-336.5396" y2="283.3274">
		<stop  offset="0" style="stop-color:#201B59;stop-opacity:0.9148"/>
		<stop  offset="0.5554" style="stop-color:#FFCC00;stop-opacity:0"/>
	</linearGradient>
	<path class="st16" d="M-332.4,269.9c-1.8-5.2-3.6-10.4-5.5-15.6c0.1,0.4-1,2.1-1.2,2.5c-0.4,0.9-0.8,1.8-1.2,2.7
		c-0.8,1.9-1.7,3.7-2.5,5.5c-1.6,3.5-3.2,7.1-5.2,10.4c-1.6-0.5-3.1-1.3-4.4-2.4c-0.5,3.2-1.5,6.1-2.2,9.3c-0.3,1.6-0.6,3.3-0.9,4.9
		c-0.2,0.8-0.3,1.7-0.5,2.5c-0.1,0.3-0.2,2.1-0.5,2.3c8.5-5,16.3-11.2,23.1-18.3c0.5-0.6,1.1-1.2,1.2-2
		C-332,271.1-332.2,270.5-332.4,269.9z"/>
	<path class="st14" d="M-265.5,185.7c-1.6-0.2-3.2,0.2-4.6,1.1c-0.6,0.4-1,1.2-0.6,1.9c0.3,0.6,1.3,1,1.9,0.6c1-0.7,2-0.9,3.1-0.7
		c0.8,0.1,1.4-0.6,1.5-1.3C-264.2,186.4-264.8,185.8-265.5,185.7z"/>
	<path class="st14" d="M-276.9,187.9c-2-0.9-4.1-0.5-6.1,0c-1.5,0.4-1.2,2.9,0.4,2.5c1.6-0.4,3.2-0.9,4.7-0.2
		C-276.4,190.9-275.4,188.6-276.9,187.9z"/>
	
		<linearGradient id="SVGID_4_" gradientUnits="userSpaceOnUse" x1="-301.0587" y1="189.4136" x2="-312.753" y2="203.1126" gradientTransform="matrix(0.9745 -0.2244 0.2244 0.9745 -35.8289 -39.7353)">
		<stop  offset="0.2654" style="stop-color:#201B59;stop-opacity:0.9148"/>
		<stop  offset="0.5554" style="stop-color:#FF735F;stop-opacity:0"/>
	</linearGradient>
	<path class="st17" d="M-294.5,214.6c-0.1,2.6-0.2,5.2-0.3,7.8c0,1.4-0.1,2.7-0.1,4.1c0,0.2-0.1,0.7-0.1,1.2
		c1.6-0.4,3.2-0.7,4.7-1.3c2.1-1,4.2-2.3,5.3-4.5c0.4-0.8,0.7-1.7,0.9-2.6C-287.7,218.6-291.8,217.2-294.5,214.6z"/>
	<path class="st9" d="M-322,320.6c13.5,1.6,28.5,3.4,41.5-0.5c-2.1-3-4.2-6-6.9-8.6c-2.7-2.5-6-4.5-9.7-4.9
		c-1.9-0.2-3.9-0.1-5.8,0.2c-3.4,0.4-7.7,2.2-11.1,1.9c-2.8-0.2-6.5-2.7-9.2-3.7c-18.1-7.2-39.6-16.9-59.5-11.7
		c-10,2.6-16.1,11-9.1,20.4c3.9,5.3,10.1,4.3,16.2,4.4c16.4,0.3,32.9,0.1,49.2,2C-324.9,320.2-323.5,320.4-322,320.6z"/>
	<g>
		<path class="st14" d="M-280.1,210.5l-1-0.3c0.6-2.1,1.3-3.7,2.3-5c1.3-1.6,3-2.7,4.8-2.9c0.6-0.1,1.2,0,1.7,0.1
			c1,0.3,2,1.2,2.5,2.4l-0.9,0.4c-0.4-0.9-1.1-1.6-1.9-1.9c-0.4-0.1-0.8-0.2-1.3-0.1c-1.5,0.2-3,1.1-4.1,2.5
			C-279,207.1-279.6,208.5-280.1,210.5z"/>
	</g>
	<linearGradient id="SVGID_5_" gradientUnits="userSpaceOnUse" x1="-358.5909" y1="300.2795" x2="-367.2907" y2="282.6162">
		<stop  offset="0.2654" style="stop-color:#201B59;stop-opacity:0.9148"/>
		<stop  offset="0.5554" style="stop-color:#FF735F;stop-opacity:0"/>
	</linearGradient>
	<path class="st18" d="M-356,287.3c-0.1-0.2-0.3-0.5-0.4-0.7c-0.9-1.5-1.8-3.1-2.7-4.7c-1.3,1.2-2.5,2.4-4,3.5
		c-1.9,1.3-3.6,2.9-5.2,4.5c-1,1-1.9,2.1-2.8,3.1c0.2,0.6,0.5,1.1,0.7,1.7c0.1,0.3,0.2,0.6,0.4,0.9c0.6-0.2,1.3-0.4,1.9-0.6
		c3.2-0.9,7.5-2.2,11-1.7c0.2-2,1-3.8,1.1-5.8C-355.9,287.4-356,287.3-356,287.3z"/>
	<path class="st6" d="M-249.4,115.4h-135.1c-16.8,0-30.5-13.6-30.5-30.5V74.6c0-16.8,13.6-30.5,30.5-30.5h104.7
		c16.8,0,30.5,13.6,30.5,30.5V115.4z"/>
	<g>
		<path class="st0" d="M-354.6,86.5h-3.1v5.4h-7.4v-5.4h-11.1V81l11.5-16.9h6.9v16.8h3.1V86.5z M-365.1,80.9v-3.2
			c0-0.6,0-1.4,0.1-2.5c0-1,0.1-1.6,0.1-1.6h-0.2c-0.4,1-0.9,1.9-1.5,2.7l-3.1,4.6H-365.1z"/>
		<path class="st0" d="M-324.9,78c0,4.9-0.8,8.5-2.5,10.8c-1.6,2.3-4.2,3.4-7.5,3.4c-3.3,0-5.8-1.2-7.5-3.6
			c-1.7-2.4-2.5-5.9-2.5-10.6c0-4.9,0.8-8.5,2.5-10.8c1.6-2.3,4.2-3.5,7.5-3.5c3.3,0,5.8,1.2,7.5,3.6
			C-325.7,69.7-324.9,73.3-324.9,78z M-337.5,78c0,3.1,0.2,5.3,0.6,6.5c0.4,1.2,1,1.8,2,1.8c0.9,0,1.6-0.6,2-1.8
			c0.4-1.2,0.6-3.3,0.6-6.4c0-3.1-0.2-5.2-0.6-6.5c-0.4-1.2-1-1.8-2-1.8c-0.9,0-1.6,0.6-2,1.8C-337.3,72.7-337.5,74.9-337.5,78z"/>
		<path class="st0" d="M-293.6,86.5h-3.1v5.4h-7.4v-5.4h-11.1V81l11.5-16.9h6.9v16.8h3.1V86.5z M-304,80.9v-3.2c0-0.6,0-1.4,0.1-2.5
			c0-1,0.1-1.6,0.1-1.6h-0.2c-0.4,1-0.9,1.9-1.5,2.7l-3.1,4.6H-304z"/>
	</g>
	<path class="st8" d="M-326.3,186.3h-98c-12.7,0-23-10.3-23-23v-7.8c0-12.7,10.3-23,23-23h75c12.7,0,23,10.3,23,23V186.3z"/>
	<g>
		<path class="st6" d="M-409.2,165.2c-1.7,0-3-0.5-3.9-1.4c-0.9-0.9-1.4-2.2-1.4-3.9c0-1.7,0.4-3.1,1.3-4c0.9-0.9,2.1-1.4,3.6-1.4
			c1.5,0,2.6,0.4,3.4,1.2c0.8,0.8,1.2,2,1.2,3.4v1.4h-6.7c0,0.8,0.3,1.4,0.7,1.9c0.4,0.4,1.1,0.7,1.9,0.7c0.6,0,1.2-0.1,1.8-0.2
			c0.6-0.1,1.1-0.3,1.7-0.6v2.2c-0.5,0.2-1,0.4-1.6,0.5C-407.7,165.2-408.4,165.2-409.2,165.2z M-409.6,156.5
			c-0.6,0-1.1,0.2-1.4,0.6c-0.3,0.4-0.5,0.9-0.6,1.6h4c0-0.7-0.2-1.2-0.5-1.6C-408.5,156.7-409,156.5-409.6,156.5z"/>
		<path class="st6" d="M-395.1,154.5c0.4,0,0.7,0,1,0.1l-0.2,2.6c-0.2-0.1-0.5-0.1-0.8-0.1c-0.9,0-1.6,0.2-2.1,0.7
			c-0.5,0.5-0.8,1.1-0.8,1.9v5.3h-2.8v-10.3h2.1l0.4,1.7h0.1c0.3-0.6,0.8-1,1.3-1.4C-396.3,154.7-395.7,154.5-395.1,154.5z"/>
		<path class="st6" d="M-384.6,154.5c0.4,0,0.7,0,1,0.1l-0.2,2.6c-0.2-0.1-0.5-0.1-0.8-0.1c-0.9,0-1.6,0.2-2.1,0.7
			c-0.5,0.5-0.8,1.1-0.8,1.9v5.3h-2.8v-10.3h2.1l0.4,1.7h0.1c0.3-0.6,0.8-1,1.3-1.4C-385.8,154.7-385.2,154.5-384.6,154.5z"/>
		<path class="st6" d="M-370.5,159.9c0,1.7-0.4,3-1.3,3.9c-0.9,0.9-2.1,1.4-3.7,1.4c-1,0-1.9-0.2-2.6-0.7c-0.8-0.4-1.3-1.1-1.7-1.9
			c-0.4-0.8-0.6-1.8-0.6-2.8c0-1.7,0.4-3,1.3-3.9c0.9-0.9,2.1-1.4,3.7-1.4c1,0,1.9,0.2,2.6,0.6c0.8,0.4,1.3,1,1.7,1.9
			C-370.7,157.8-370.5,158.8-370.5,159.9z M-377.6,159.9c0,1,0.2,1.8,0.5,2.3c0.3,0.5,0.9,0.8,1.6,0.8c0.8,0,1.3-0.3,1.6-0.8
			c0.3-0.5,0.5-1.3,0.5-2.3c0-1-0.2-1.8-0.5-2.3c-0.3-0.5-0.9-0.8-1.6-0.8c-0.8,0-1.3,0.3-1.6,0.8
			C-377.5,158.1-377.6,158.8-377.6,159.9z"/>
		<path class="st6" d="M-360.5,154.5c0.4,0,0.7,0,1,0.1l-0.2,2.6c-0.2-0.1-0.5-0.1-0.8-0.1c-0.9,0-1.6,0.2-2.1,0.7
			c-0.5,0.5-0.8,1.1-0.8,1.9v5.3h-2.8v-10.3h2.1l0.4,1.7h0.1c0.3-0.6,0.8-1,1.3-1.4C-361.7,154.7-361.2,154.5-360.5,154.5z"/>
	</g>
	<linearGradient id="SVGID_6_" gradientUnits="userSpaceOnUse" x1="-233.6468" y1="250.7266" x2="-308.2491" y2="169.6182">
		<stop  offset="4.469140e-03" style="stop-color:#FFFFFF"/>
		<stop  offset="0.551" style="stop-color:#FFFFFF;stop-opacity:0.3"/>
	</linearGradient>
	<path class="st19" d="M-217,290.3l-25.9-96.6c-3.6-13.6-15.8-23.1-29.9-23.4h0c-26.7-0.6-42.1,30.1-25.6,51.2
		c27.1,34.5,57,73.3,57,73.3L-217,290.3z"/>
	<path class="st5" d="M-176.5,166.2h-71.3v-25.3c0-10.4,8.5-18.9,18.9-18.9h52.4c10.4,0,18.9,8.5,18.9,18.9v6.4
		C-157.6,157.7-166,166.2-176.5,166.2z"/>
	<g>
		<circle class="st20" cx="-216" cy="144.1" r="2.3"/>
		<path class="st20" d="M-200.4,144.1c0,1.3-1,2.3-2.3,2.3c-1.3,0-2.3-1-2.3-2.3s1-2.3,2.3-2.3
			C-201.4,141.7-200.4,142.8-200.4,144.1z"/>
		<circle class="st20" cx="-189.3" cy="144.1" r="2.3"/>
	</g>
	<g>
		<path class="st21" d="M-382.2,307.6c-1.4,0-2.7-0.1-3.8-0.4l0.4-2.1c4.4,0.9,11.5,0,13.5-4.2c0.6-1.3,0.6-2.9,0-4.1
			c-0.7-1.3-1.7-2.2-3.1-2.6c-2.7-0.8-6.2,0.1-8.5,1.4l-1.1-1.9c2.5-1.4,6.7-2.7,10.2-1.6c2,0.6,3.5,1.9,4.4,3.7c0.9,1.9,1,4.2,0,6
			C-372.2,306.1-377.6,307.6-382.2,307.6z"/>
	</g>
	<path class="st21" d="M-392.4,314.8h-7.4c-7.6,0-13.7-6.1-13.7-13.7V287h34.8v14.2C-378.7,308.7-384.8,314.8-392.4,314.8z"/>
	<path class="st0" d="M-369,317h-53.5c-0.9,0-1.6-0.7-1.6-1.6l0,0c0-0.9,0.7-1.6,1.6-1.6h53.5c0.9,0,1.6,0.7,1.6,1.6l0,0
		C-367.4,316.3-368.1,317-369,317z"/>
	<g>
		<path class="st22" d="M-158,255.4c0,0.6,0,1.2,0,1.8c0.1,2,0.2,4-0.4,5.9c-0.2,0.6-0.5,1.2-1,1.8c-2.8,3.5-7.8,4.2-12.2,4.9
			c0,1,0,2,0.1,3c4.7-0.7,9.4-2,13.8-3.6c1-0.4,1.9-0.7,2.5-1.4c0.7-0.7,1-1.7,1.3-2.6c0.6-2,0.9-15.7,0.3-20.5
			c-0.7-0.1-1.3-0.1-2,0.1c-0.9,0.3-1.8,0.8-2.5,1.4c0,1.4,0,3,0,4.5C-158,252.5-158,254.2-158,255.4z"/>
		<path class="st22" d="M-150,259.2c-0.1-3.5-0.2-6.9-0.5-10.4c-0.1-0.9-0.1-1.9-0.6-2.7c-0.3-0.5-0.8-0.9-1.4-1.2
			c0.5,5.3,0.2,18.3-0.4,20.4c-0.3,1.1-0.7,2.2-1.6,3c-0.8,0.8-1.9,1.2-2.9,1.6c-4.5,1.7-9.3,2.9-14.1,3.7c0,9.1-0.6,18.1-2.2,27.1
			l-1-0.2c4.4-24.5,1.4-49.6-2.3-75.3l1-0.1c2.1,14.7,4,29.2,4.4,43.5c4.2-0.6,8.9-1.3,11.4-4.5c0.4-0.5,0.7-1,0.8-1.5
			c0.5-1.7,0.5-3.7,0.4-5.5c0-0.6,0-1.2,0-1.8c0-1.2,0-2.9,0-4.7c0-1.1,0-2.3,0-3.4c-1,1.4-1.6,3.1-1.9,4.8
			c-0.5,3.2-0.3,6.5-1.1,9.6c-0.2,0.6-0.4,1.2-0.7,1.7c-0.4,0.6-0.9,1-1.5,1.3c-0.9,0.4-2,0.5-2.9,0c-1-0.6-0.8-1.4-0.8-2.4
			c0-1.1-0.2-2.3-0.3-3.5c-0.3-2.6-0.6-5.2-0.8-7.8c-0.5-5.1-0.9-10.3-1.4-15.4c-0.2-2.3-0.5-4.8-1.7-6.9c-2.2-4-5-4.7-7.4-3.6
			l0.1,0c-1,4.6-2,9.3-2,14c0,5.5,1.5,11.1,3,16.4c0.9,3.3,1.8,6.8,2.4,10.2c1.7,10.1,0.4,20.4-0.8,30.4l-1-0.1
			c0.4-3.2,0.8-6.4,1.1-9.6c-1.8,0.3-3.5,0.5-5.1,0.5c-2.1,0-4.2-0.4-6-1.4c-2-1.1-3.6-3.1-4.4-5.6c-0.8-2.3-0.9-4.7-0.9-6.8
			c0-2.5,0.2-5,0.6-7.3l1,0.2c-0.4,2.3-0.6,4.7-0.6,7.2c0,2,0.1,4.3,0.8,6.4c0.8,2.2,2.2,4,4,5c3,1.7,6.8,1.4,10.7,0.7
			c0.6-6.5,0.7-13.1-0.4-19.5c-0.6-3.4-1.5-6.8-2.4-10.1c-1.5-5.4-3-11-3-16.6c0-4.6,0.9-9.1,1.9-13.5c-2.6,1.7-4.7,5.3-5.1,8.6
			c-1.6,15.1,6.2,29.3,5.6,44.3c0,0.6-0.1,1.3-0.3,1.9c-1.2,2.4-5,1.9-6.7,0.6c-2.7-2.1-1.8-6.8-1.8-9.5c0-2.3-0.7-4.8-2.9-5.9
			c-2.5-1.2-5.7,0.2-7.2,2.5c-1.8,2.9-1.6,7.8-1.4,11c0.2,2.3,0.7,4.6,2.1,6.6c1.4,2,3.6,3.5,6.1,3.6c1.5,0.1,3.1-0.2,4.2,0.7
			c1.4,1.1,0.9,3,0.9,4.7c0.1,3.2,2.9,6,6.1,7.4c3.2,1.4,6.9,1.6,10.4,1.8c3-4.8,3.2-10.4,3.4-15.8c0.1-1.8-0.2-4.6,0.1-7
			c0.3-1.9,0.9-3.7,2.5-4.5c2.2-1.3,5.1-0.2,7.6-0.7C-149.8,274.5-149.9,264.6-150,259.2z"/>
		<path class="st14" d="M-172.1,272.8c0.2,0,0.4-0.1,0.6-0.1c0-1,0-2-0.1-3c0,0,0,0,0,0l-0.5,0.1l-0.1-1l0.5-0.1c0,0,0.1,0,0.1,0
			c-0.4-14.3-2.3-28.8-4.4-43.5l-1,0.1c3.7,25.7,6.7,50.7,2.3,75.3l1,0.2c1.6-9,2.2-18,2.2-27.1c-0.2,0-0.3,0.1-0.5,0.1
			L-172.1,272.8z"/>
		<path class="st14" d="M-179.4,255.9c0.9,3.3,1.8,6.7,2.4,10.1c1.1,6.5,0.9,13,0.4,19.5c0.2,0,0.4-0.1,0.6-0.1l0.2,1
			c-0.3,0-0.6,0.1-0.8,0.1c-0.3,3.2-0.7,6.4-1.1,9.6l1,0.1c1.2-10,2.5-20.3,0.8-30.4c-0.6-3.4-1.5-6.9-2.4-10.2
			c-1.4-5.3-2.9-10.9-3-16.4c0-4.7,1-9.4,2-14l-0.1,0c-0.3,0.1-0.7,0.3-1,0.5c-1,4.4-1.9,8.9-1.9,13.5
			C-182.4,244.9-180.9,250.5-179.4,255.9z"/>
		<path class="st14" d="M-159,255.5c0,0.6,0,1.2,0,1.8c0.1,1.9,0.1,3.8-0.4,5.5c-0.1,0.5-0.4,0.9-0.8,1.5c-2.5,3.2-7.2,3.9-11.4,4.5
			c0,0-0.1,0-0.1,0l-0.5,0.1l0.1,1l0.5-0.1c0,0,0,0,0,0c4.4-0.6,9.4-1.3,12.2-4.9c0.5-0.6,0.8-1.2,1-1.8c0.6-1.9,0.5-3.9,0.4-5.9
			c0-0.6,0-1.2,0-1.8c0-1.2,0-2.9,0-4.7c0-1.5,0-3.1,0-4.5c-0.4,0.3-0.7,0.7-1,1.2c0,1.1,0,2.2,0,3.4
			C-159,252.5-159,254.2-159,255.5z"/>
		<path class="st14" d="M-176.1,285.4c-0.2,0-0.4,0.1-0.6,0.1c-3.9,0.6-7.7,1-10.7-0.7c-1.8-1-3.2-2.8-4-5c-0.8-2.2-0.9-4.5-0.8-6.4
			c0-2.5,0.2-4.9,0.6-7.2l-1-0.2c-0.4,2.3-0.6,4.8-0.6,7.3c0,2,0.1,4.4,0.9,6.8c0.9,2.4,2.4,4.4,4.4,5.6c1.8,1,3.8,1.4,6,1.4
			c1.6,0,3.4-0.2,5.1-0.5c0.3,0,0.6-0.1,0.8-0.1L-176.1,285.4z"/>
		<path class="st14" d="M-153.8,265.1c-0.3,0.9-0.6,1.9-1.3,2.6c-0.6,0.6-1.6,1-2.5,1.4c-4.4,1.7-9.1,2.9-13.8,3.6
			c-0.2,0-0.4,0.1-0.6,0.1l0.1,1c0.2,0,0.3-0.1,0.5-0.1c4.8-0.8,9.6-2,14.1-3.7c1-0.4,2.1-0.8,2.9-1.6c0.9-0.8,1.2-2,1.6-3
			c0.6-2.1,0.9-15.2,0.4-20.4c-0.3-0.1-0.7-0.2-1-0.3C-152.9,249.4-153.2,263.1-153.8,265.1z"/>
	</g>
	<polygon class="st10" points="-190.6,295.5 -161.3,294.9 -164.2,316.8 -186.6,316.7 	"/>
	<path class="st0" d="M-198,318.2h-123.7c-1.4,0-2.5-1.1-2.5-2.5v-0.9c0-1.4,1.1-2.5,2.5-2.5H-198c1.4,0,2.5,1.1,2.5,2.5v0.9
		C-195.5,317.1-196.7,318.2-198,318.2z"/>
	<path class="st8" d="M-195.1,318.2h-110l9.6-63.2c0.3-2.2,2.2-3.8,4.4-3.8h101.3c2.6,0,4.6,2.4,4.2,5L-195.1,318.2z"/>
	<circle class="st23" cx="-240.1" cy="280.2" r="5.3"/>
	<g>
		<path class="st24" d="M-234.7,246.2c-0.7-2.9-1-5.9-1-8.8c0-2.9,0.4-5,2.4-7.2c1.3-1.5,3.1-3.4,4.7-4.6c4.4-3.5,6.1-9.9,3.9-15.1"
			/>
		<path class="st24" d="M-225.4,237.7c-0.6-2.5,0.8-5,2.5-6.9c1.7-1.9,3.9-3.4,5.4-5.4c3.2-4.4,3.1-8.5,2.5-16.7
			c-0.4-5.8-0.3-12.3,3.8-16.3"/>
	</g>
	<path class="st6" d="M-158.7,323h-319.4c-1.7,0-3-1.3-3-3v-1c0-1.7,1.3-3,3-3h319.4c1.7,0,3,1.3,3,3v1
		C-155.7,321.7-157.1,323-158.7,323z"/>
	<path class="st25" d="M-126,134.4c2.5,15.7,3.5,32.5-3.7,46.7c-4,7.9-10.3,14.4-13.9,22.6c-3.8,8.7-5.2,17.7-6.1,27.1"/>
	<path class="st25" d="M-449.7,108.2c-10,12.1-24.8,18.9-36.8,29c-19.4,16.3-30.9,41.6-30.4,66.9"/>
	<path class="st25" d="M-230.7,8.1c16.3,5.1,30.2,17.4,37.2,33"/>
	<path class="st25" d="M-458.3,342.5c22,19.4,50.6,31.2,79.8,33"/>
	<path class="st26" d="M-238.9,348.3c5.4-2.4,10.6-5.1,15.7-8"/>
	<path class="st26" d="M-311.9,363c21.3-0.9,39.7-1.9,62.7-11"/>
	<path class="st1" d="M168.7,220.3h-98c-12.7,0-23-10.3-23-23v-7.8c0-12.7,10.3-23,23-23h75c12.7,0,23,10.3,23,23V220.3z"/>
	<path class="st27" d="M271.1,360.5c27.6-9.7,54.2-26.3,71.7-50.6c21.4-29.6,19.5-63.2,23.9-97.8c1.8-14.1,11.2-22.2,16.8-34.6
		c11.8-26.3,7.6-65.9-17.2-83.8c-15.3-11-30.1-12.2-38.4-31.4c-4.6-10.6-7.2-22.2-14.3-31.3c-10.3-13.2-27.7-18.4-44.1-20.9
		c-19.2-3-37.9-2.4-57.1-2.9C191.8,6.4,171,7,151.1,12.4c-27,7.4-56.7,26.7-61.4,56.2c-2,12.6,0.6,26.1-4.2,37.9
		C78.3,124.4,59,130.4,44.7,141c-15.4,11.3-25.4,29-29.8,47.3c-7.5,31.3-2,66,12.6,94.4c15.6,30.4,40.9,56.3,71.5,71.5
		c24,11.9,57.2,15.4,84.3,17.1C213,373,243.2,370.3,271.1,360.5z"/>
	<path class="st28" d="M341.6,238.4c-0.2-44.7-12.5-87.6-48.9-116.4c-44.9-35.5-107.6-35.1-153.4-1.9c-30,21.7-51,54.3-62.8,89.4
		C64.7,244.5,61.7,282,62.9,319l273,0.9c1.1-12.5,2.3-25.1,3.4-37.6C340.6,267.8,341.7,253.1,341.6,238.4z"/>
	<path class="st29" d="M109.4,311.8c-0.3-0.3-0.8-0.6-1.2-0.9c-1.4-1.1-1.7-3.1-1.9-4.9c-1.8-22,1.5-44.2,0.4-66.2
		c-0.2-5.3-4.5-2.7-8-2c-0.5,0.1-7.4,1.4-7.3,0.6c-0.6,6.3-1.4,13-5.6,17.7c-2.9,3.3-7,5.2-10.6,7.6c-13.6,9.2-21.5,26.9-23.4,42.9
		c0-0.4-0.1-0.7-0.1-1.1c-0.3-3.2-0.5-6.4-0.6-9.6c-0.3-6.7-0.4-13.4-0.3-20.1c0.1-5,0.7-10.5-2.3-14.8c-2.6-3.7-5.4-4-9.1-4.3
		c-1-2-0.8-5.9-0.8-7.7c0-2.9,0.5-6.1,2.6-8.3c3.4-3.6,8.7-1.4,13.1-2.5c9.8-2.5,6.3-15,5.7-22.2c-0.4-4.4-7.4-4.5-7,0
		c0.3,3.6,1,7.4,1,11c0,2.3,0,3.8-2.4,4.6c-1,0.3-2.4,0-3.4,0c-5.1,0-9.5,1.1-12.8,5.2c-3.5,4.5-4.1,10.3-3.5,15.8
		c0.4,4.2,0.6,10,5.7,10.9c4.7,0.8,6.2,1.8,6.3,6.8c0.1,3.4-0.2,6.8-0.2,10.2c0,7.7,0.2,15.4,0.8,23c0.3,4.4-0.4,12.3,3.3,15.6
		c1.9,1.6,4.1,1.7,5.9,0.8c5.8,0.3,19.6-0.5,21.1-0.5h17.8c3,0,8.2,1,11.1-0.4c1.5-0.8,4.3-2.3,5.4-3.6
		C110.1,314.6,110.3,312.8,109.4,311.8z"/>
	<path class="st30" d="M501,204.3c0-1.8,0-3.6-0.1-5.4c0-0.3-0.1-0.7-0.1-1c-0.1-0.4-0.2-0.7-0.3-1.1c-1.3-2.5-5.9-0.3-7.7,0.5
		c-2,1-3.8,2.3-5.6,3.6c-1,0.8-2.2,1.7-2.7,2.9c-0.6,1.3-0.2,3.3-0.1,4.7c0.1,1,0.3,2.1,0.9,2.9s1.8,1.3,2.7,0.7
		c0.2,1.1,0.4,2.2,0.9,3.2c0.4,0.8,1.1,1.3,2,1.5c0.6,0.2,0.5,0.1,0.7,0.7c0,0,0,0,0,0c0.1,0.5,0.3,0.9,0.5,1.3c0,0,0,0.1,0,0.1
		c0.2,0.3,0.3,0.6,0.6,0.8c0.1,0.1,0.3,0.2,0.5,0.3c0,0,0,0,0,0c0,0,0,0,0,0c0.3,0.2,0.7,0.3,1.1,0.4c1,0.1,2.1-0.2,2.6-1.1
		c0.6-1,0.5-2.1,0.4-3.2c0.8,0,1.5-0.4,1.8-1.3c0.4-0.8,0.3-1.9,0.3-2.8c0-1.1,0-2.1-0.1-3.2C501.4,209,501,205.7,501,204.3z"/>
	<linearGradient id="SVGID_7_" gradientUnits="userSpaceOnUse" x1="535.3841" y1="240.4146" x2="567.9142" y2="225.5229">
		<stop  offset="0" style="stop-color:#19034D;stop-opacity:0.9148"/>
		<stop  offset="0.5554" style="stop-color:#311573;stop-opacity:0"/>
	</linearGradient>
	<path class="st31" d="M545.9,216.1c3.5,2.1,5.9,6.4,5.4,10.6c-0.4,4.3-3.9,7.8-7,10.4c-3.3,2.8-7,5.3-9.1,9.1
		c2.2-0.3,4.4-0.4,6.5-0.5c1.9-0.1,4,0.1,5.1,1.6c1.1,1.6,0.5,3.8,0.8,5.7c0.2,0.1,0.5,0.1,0.7-0.1c0.1,0.5,0.1,0.5,0.6,0.5
		c1.7-0.1,3.2-1.4,4-3c0.8-1.6,1.1-3.3,1.3-5.1c0.7-6.2,1.1-12.5,0.7-18.8c-0.1-2-0.4-4-1.4-5.7C552,217.9,549.2,215.8,545.9,216.1z
		"/>
	<path class="st29" d="M75.2,224c-0.1-0.3-0.2-0.6-0.3-0.9c0,0.1,0.8,0.4,1,0.5c0.4,0.2,0.7,0.4,1.1,0.6c0.7,0.4,1.4,0.8,2.1,1.2
		c0.7,0.4,1.4,0.8,2.1,1.3c0.3,0.2,0.5,0.4,0.8,0.3c0.5-0.1,1-0.4,1.5-0.6c0.6-0.2,1.2-0.5,1.8-0.7c1.2-0.5,2.4-1,3.6-1.4
		c2.4-0.9,4.8-1.9,7.1-2.9c0.9-0.4,3-0.9,3.3-1.9c0.1-0.4,0.1-0.7,0.1-1.1c0.1-1.9,0.5-5.5,0.5-5.5s1.4,1.2,1.7,1.5
		c0.5,0.6,1,1.3,1.5,1.9c1,1.3,1.8,2.6,2.6,4.1c1.7,3,3.1,6.1,4.2,9.3c0.9,2.6,1.4,5.2-0.3,7.5c-1.6,2.2-4.2,3.5-6.5,4.7
		c-4.8,2.5-9.9,5.2-15.3,5.7c-1.4,0.1-2.8,0.1-4-0.5c-1.2-0.6-2.1-1.8-2.8-3.1C77.7,237.7,77,230.7,75.2,224z"/>
	<path class="st0" d="M101.9,237.7c-1.6-0.5-3.2-0.6-4.8-1.1c0.1-0.2,0.2-0.3,0.3-0.5c0.2-0.4,0.5-0.8,0.7-1.3
		c0.2-0.3,0-0.6-0.3-0.7c-0.5-0.2-1.4,0.3-1.9,0.5c-0.8,0.3-1.5,0.6-2.2,1c-0.4,0.2-0.3,0.8,0.1,0.9c0.7,0.2,1.3,0.4,2,0.6
		c-0.7,1.7-1.3,3.4-1.8,5.2c-0.2,0.6,0.8,0.9,1,0.3c0.5-1.7,1-3.4,1.7-5c1.6,0.5,3.3,0.6,4.9,1.1
		C102.2,238.9,102.5,237.9,101.9,237.7z"/>
	<path class="st0" d="M88.1,233.5c-0.2-0.1-0.5-0.1-0.6,0c-0.1,0-0.3,0-0.4,0.2c-0.1,0.1-0.2,0.3-0.2,0.4c0,0.1-0.1,0.2-0.1,0.2
		c0,0.2,0,0.3,0.1,0.4c0.1,0.1,0.1,0.3,0.3,0.4c0.4,0.4,1.1,0.2,1.4-0.3C89,234.4,88.7,233.7,88.1,233.5z"/>
	<path class="st0" d="M103.1,227.5c-0.2-0.1-0.5-0.1-0.6,0c-0.1,0-0.3,0-0.4,0.2c-0.1,0.1-0.2,0.3-0.2,0.4c0,0.1-0.1,0.2-0.1,0.2
		c0,0.2,0,0.3,0.1,0.4c0.1,0.1,0.1,0.3,0.3,0.4c0.4,0.4,1.1,0.2,1.4-0.3C104,228.4,103.7,227.7,103.1,227.5z"/>
	<path class="st32" d="M129,292.4c-1.9,6.5-3.5,14.1,0.3,19.7c4.6,6.7,15.3,6.7,22,1.9c6.7-4.7,10.3-12.6,13.4-20.2
		c5.2-12.8,9.8-25.9,11.6-39.6c1.1-8,0.1-17.9-7.1-21.4c-11.2-5.4-20.7,3.2-24.3,12.7C139,261,133.7,276.6,129,292.4z"/>
	<path class="st33" d="M162.9,210c-2.9,3.1-5.4,6.4-7.7,9.9c-3.1,4.9-5.3,10.1-7.7,15.4c-0.9,1.8-8.1,17.8-6.5,18.9
		c9.1,6.5,18.1,13.7,28.5,17.7c0.4,0.1-1.6,7.8-1.8,8.5c-0.7,2.8-1.4,5.7-1.9,8.5c-1.1,5.7-2,11.5-3,17.2c-0.6,3.2-1.1,6.4-1.6,9.6
		c-0.2,1.4,45.2,4.5,49.3,4.5c12,0.2,30.9,3.6,38.2-8.7c1.7-2.9,2.6-6.2,3.4-9.5c4.5-19.3,6.4-39.2,6-59c-0.1-4.7-0.4-9.3-1.5-13.8
		c-1.6-6.6-5.1-12.5-8.7-18.1c-3.3-5.2-8.5-8-14-10.7c-16.5-7.9-36.5-10.5-53.2-3.1C173.8,200.2,167.9,204.7,162.9,210z"/>
	<path class="st11" d="M238.4,256.8c-0.5,1-0.9,2.1-1.4,3.1c-1.7,4-6.1,11-6.1,15.4c-2,6.4-3,13.3-1.8,19.9c0.5,2.6,1.3,5.2,2.2,7.8
		c1.1,3.2,2.3,6.4,4.3,9.2c1.8,2.4,6.2,6.3,9.6,5c3.5-1.4,6.2-7.8,7.5-11c8-18.8,11.2-39.5,13.1-59.8c0.1-1.4,0.3-2.9,0-4.3
		c-0.4-2.1-1.8-3.8-3.1-5.5c-1.8-2.2-3.8-4.5-6.6-5c-2.6-0.5-5.4,0.9-7.2,2.9c-1.8,2-2.9,4.5-4,7
		C242.8,246.6,240.6,251.7,238.4,256.8z"/>
	<path class="st33" d="M253,254.6c-1.5-0.4-23.1-5.7-23.1-3c0.2-11.7,0.8-23.4,1.9-35.1c0.4-3.7,0.8-7.5,2.2-10.9
		c1.4-3.5,4-6.6,7.4-7.9c2.6-1,5.4-0.9,8.1-0.3c8.5,1.8,15.6,8.8,17.7,17.2c0.9,3.6,0.9,7.4,0.9,11.1c-0.1,11-0.9,22-1.6,33
		C261.9,258.6,257.4,255.9,253,254.6z"/>
	<path class="st34" d="M263.9,195.3c0.3,1,0.5,2,0.6,3.1c0.5,7-4.2,12.9-8.8,17.6c-1.8,1.9-4.4,3.1-6,5.1c-1.9,2.2-1.8,5.8-5,6.8
		c-1.4,0.4-3-0.1-4-1.2c-1.2-1.3-1.2-2.8-0.6-4.4c0.7-1.9,1.3-4.3,2.5-5.9c0.9-1.3,2.7-2.2,4.1-3c2.7-1.6,4.9-4.7,5.3-7.8
		c0.8-5.9,0-12.6,2-18.2c0.4-1,0.8-1.9,1.6-2.6c0.8-0.7,1.9-1.1,2.9-0.7c1.4,0.5,2,2.2,2.5,3.6C261.9,190.1,263.2,192.6,263.9,195.3
		z"/>
	<path class="st35" d="M256.2,269.5c0.7,12.6,0.5,25.5-2.9,37.8c-1,3.7-2.7,8.9-6.3,10.9c-4,2.3-10.3,0.4-14-1.7
		c-2.5-1.4-4.8-3.1-6.4-5.5c-2.4-3.7-2.6-8.5-2.3-12.9c0.8-12,3.7-23.1,6.1-34.8c2.5-12.7,5.5-25.3,8.9-37.9
		c1.4-5.3,3.3-9.3,7.8-12.7c3.2-2.4,8.5-5.6,8.8,0.7C256.8,232.1,255.2,250.8,256.2,269.5z"/>
	<path class="st32" d="M205.8,205.5c-0.4,0.7-0.7,1.4-0.9,2.1c-0.2,1-0.1,2,0,2.9c0.9,7.3,2.4,14.5,10.3,16.8
		c5.2,1.5,11.6,1,16.4-1.7c1.5-0.9,3-1.8,4.2-3.1c1.2-1.3,2.1-2.9,2.1-4.7c5.3,1.2,10.7-4.2,13.4-8c6.3-8.8,8.4-19.9,7.4-30.5
		c-0.2-2.6-0.6-5.4-2.2-7.5c-1.1-1.5-2.7-2.5-4.2-3.5c-7.2-4.6-14.9-4.9-22.7-1.2c-7.1,3.3-12.1,10.4-15.5,17.2
		c-1.4,2.9-1.6,6.7-2.8,9.7c-1.3,3.6-3,7.1-5,10.4C206.1,204.9,205.9,205.2,205.8,205.5z"/>
	<path class="st29" d="M215.7,168.5c1.6-3.6,4-7,7-9c5.4-3.8,13.2-3.1,19.3-1.7c3.5,0.8,7,2.3,10.7,2.3c3.3,0,6.7-3.3,9.9-2.2
		c1.4,0.5,2.5,1.7,2.8,3.2c0.5,2.4-1,4.7-2.1,6.9c-0.9,1.7-1.7,3.5-2.8,5.1c-1.5,2-4,3.7-6.5,4c-0.9,0.1-1.7,0-2.6-0.1
		c-5.2-0.5-9.5-2-13.5,2.1c-2.7,2.8-4,6.6-6,9.8c-0.5,0.8-1,1.6-1.8,2.1c-1,0.6-2.4,0.6-3.5,0.9c-5.1,1.2-8.5,9.8-13.9,7.9
		c-4.6-1.6-3.6-5.8-1.8-9.1c2.3-4.2,1.8-9.2,2.5-13.9C213.6,174.1,214.5,171.2,215.7,168.5z"/>
	<path class="st32" d="M217,188.4c-1.2,1.6-1.8,3.5-2.2,5.4c-0.3,1.7-0.5,3.4,0,5c0.5,1.6,1.8,3.1,3.5,3.4c1.3,0.2,2.7-0.3,3.7-1.2
		c2.4-2.1,5.2-8.5,4.5-11.8C225.5,184.5,219.3,185.4,217,188.4z"/>
	<path class="st36" d="M221.7,190.1c-1.3,0.5-2.3,1.6-3,2.9c-0.6,1.3-0.9,2.7-1.1,4.1"/>
	<path class="st29" d="M255.6,191.1c0.1,0.6-0.2,1.3-0.9,1.4c-0.6,0.1-1.3-0.2-1.4-0.9c-0.1-0.6,0.2-1.3,0.9-1.4
		C254.9,190.1,255.5,190.5,255.6,191.1z"/>
	<path class="st29" d="M242.5,192.1c0.1,0.6-0.3,1.2-1,1.3c-0.6,0.1-1.2-0.3-1.3-1c-0.1-0.6,0.3-1.2,1-1.3
		C241.8,191,242.4,191.5,242.5,192.1z"/>
	<linearGradient id="SVGID_8_" gradientUnits="userSpaceOnUse" x1="228.649" y1="321.9091" x2="242.863" y2="290.943">
		<stop  offset="0" style="stop-color:#201B59;stop-opacity:0.9148"/>
		<stop  offset="0.5554" style="stop-color:#FFCC00;stop-opacity:0"/>
	</linearGradient>
	<path class="st37" d="M225.5,288.3c-0.5,3.3-0.9,6.5-1.1,9.8c-0.3,4.5-0.2,9.2,2.3,12.9c1.5,2.4,3.9,4.1,6.4,5.5
		c3.7,2.1,10,4,14,1.7c3.5-2,5.2-7.3,6.3-10.9c1.7-6.2,2.6-12.6,3-19H225.5z"/>
	<linearGradient id="SVGID_9_" gradientUnits="userSpaceOnUse" x1="477.5448" y1="323.0624" x2="494.4604" y2="339.3274">
		<stop  offset="0" style="stop-color:#201B59;stop-opacity:0.9148"/>
		<stop  offset="0.5554" style="stop-color:#FFCC00;stop-opacity:0"/>
	</linearGradient>
	<path class="st38" d="M498.6,325.9c-1.8-5.2-3.6-10.4-5.5-15.6c0.1,0.4-1,2.1-1.2,2.5c-0.4,0.9-0.8,1.8-1.2,2.7
		c-0.8,1.9-1.7,3.7-2.5,5.5c-1.6,3.5-3.2,7.1-5.2,10.4c-1.6-0.5-3.1-1.3-4.4-2.4c-0.5,3.2-1.5,6.1-2.2,9.3c-0.3,1.6-0.6,3.3-0.9,4.9
		c-0.2,0.8-0.3,1.7-0.5,2.5c-0.1,0.3-0.2,2.1-0.5,2.3c8.5-5,16.3-11.2,23.1-18.3c0.5-0.6,1.1-1.2,1.2-2
		C499,327.1,498.8,326.5,498.6,325.9z"/>
	<path class="st29" d="M256.5,184.7c-1.6-0.2-3.2,0.2-4.6,1.1c-0.6,0.4-1,1.2-0.6,1.9c0.3,0.6,1.3,1,1.9,0.6c1-0.7,2-0.9,3.1-0.7
		c0.8,0.1,1.4-0.6,1.5-1.3C257.8,185.4,257.2,184.8,256.5,184.7z"/>
	<path class="st29" d="M245.1,186.9c-2-0.9-4.1-0.5-6.1,0c-1.5,0.4-1.2,2.9,0.4,2.5c1.6-0.4,3.2-0.9,4.7-0.2
		C245.6,189.9,246.6,187.6,245.1,186.9z"/>
	
		<linearGradient id="SVGID_10_" gradientUnits="userSpaceOnUse" x1="207.8518" y1="305.5753" x2="196.1575" y2="319.2743" gradientTransform="matrix(0.9745 -0.2244 0.2244 0.9745 -35.8289 -39.7353)">
		<stop  offset="0.2654" style="stop-color:#201B59;stop-opacity:0.9148"/>
		<stop  offset="0.5554" style="stop-color:#FF735F;stop-opacity:0"/>
	</linearGradient>
	<path class="st39" d="M227.5,213.6c-0.1,2.6-0.2,5.2-0.3,7.8c0,1.4-0.1,2.7-0.1,4.1c0,0.2-0.1,0.7-0.1,1.2c1.6-0.4,3.2-0.7,4.7-1.3
		c2.1-1,4.2-2.3,5.3-4.5c0.4-0.8,0.7-1.7,0.9-2.6C234.3,217.6,230.2,216.2,227.5,213.6z"/>
	<path class="st32" d="M200,319.6c13.5,1.6,28.5,3.4,41.5-0.5c-2.1-3-4.2-6-6.9-8.6c-2.7-2.5-6-4.5-9.7-4.9
		c-1.9-0.2-3.9-0.1-5.8,0.2c-3.4,0.4-7.7,2.2-11.1,1.9c-2.8-0.2-6.5-2.7-9.2-3.7c-18.1-7.2-39.6-16.9-59.5-11.7
		c-10,2.6-16.1,11-9.1,20.4c3.9,5.3,10.1,4.3,16.2,4.4c16.4,0.3,32.9,0.1,49.2,2C197.1,319.2,198.5,319.4,200,319.6z"/>
	<g>
		<path class="st14" d="M478.9,249.5l-1-0.3c0.6-2.1,1.3-3.7,2.3-5c1.3-1.6,3-2.7,4.8-2.9c0.6-0.1,1.2,0,1.7,0.1
			c1,0.3,2,1.2,2.5,2.4l-0.9,0.4c-0.4-0.9-1.1-1.6-1.9-1.9c-0.4-0.1-0.8-0.2-1.3-0.1c-1.5,0.2-3,1.1-4.1,2.5
			C480,246.1,479.4,247.5,478.9,249.5z"/>
	</g>
	<linearGradient id="SVGID_11_" gradientUnits="userSpaceOnUse" x1="163.4091" y1="299.2795" x2="154.7093" y2="281.6162">
		<stop  offset="0.2654" style="stop-color:#201B59;stop-opacity:0.9148"/>
		<stop  offset="0.5554" style="stop-color:#FF735F;stop-opacity:0"/>
	</linearGradient>
	<path class="st40" d="M166,286.3c-0.1-0.2-0.3-0.5-0.4-0.7c-0.9-1.5-1.8-3.1-2.7-4.7c-1.3,1.2-2.5,2.4-3.9,3.5
		c-1.9,1.3-3.6,2.9-5.2,4.5c-1,1-1.9,2.1-2.8,3.1c0.2,0.6,0.5,1.1,0.7,1.7c0.1,0.3,0.2,0.6,0.4,0.9c0.6-0.2,1.3-0.4,1.9-0.6
		c3.2-0.9,7.5-2.2,11-1.7c0.2-2,1-3.8,1.1-5.8C166.1,286.4,166,286.3,166,286.3z"/>
	<g>
		<path class="st0" d="M474.4,110.5h-3.1v5.4h-7.4v-5.4h-11.1V105l11.5-16.9h6.9v16.8h3.1V110.5z M463.9,104.9v-3.2
			c0-0.6,0-1.4,0.1-2.5c0-1,0.1-1.6,0.1-1.6h-0.2c-0.4,1-0.9,1.9-1.5,2.7l-3.1,4.6H463.9z"/>
		<path class="st0" d="M504.1,102c0,4.9-0.8,8.5-2.5,10.8c-1.6,2.3-4.2,3.4-7.5,3.4c-3.3,0-5.8-1.2-7.5-3.6
			c-1.7-2.4-2.5-5.9-2.5-10.6c0-4.9,0.8-8.5,2.5-10.8c1.6-2.3,4.2-3.5,7.5-3.5c3.3,0,5.8,1.2,7.5,3.6
			C503.3,93.7,504.1,97.3,504.1,102z M491.5,102c0,3.1,0.2,5.3,0.6,6.5c0.4,1.2,1,1.8,2,1.8c0.9,0,1.6-0.6,2-1.8
			c0.4-1.2,0.6-3.3,0.6-6.4c0-3.1-0.2-5.2-0.6-6.5c-0.4-1.2-1-1.8-2-1.8c-0.9,0-1.6,0.6-2,1.8C491.7,96.7,491.5,98.9,491.5,102z"/>
		<path class="st0" d="M535.4,110.5h-3.1v5.4H525v-5.4h-11.1V105l11.5-16.9h6.9v16.8h3.1V110.5z M525,104.9v-3.2
			c0-0.6,0-1.4,0.1-2.5c0-1,0.1-1.6,0.1-1.6h-0.2c-0.4,1-0.9,1.9-1.5,2.7l-3.1,4.6H525z"/>
	</g>
	<linearGradient id="SVGID_12_" gradientUnits="userSpaceOnUse" x1="294.3532" y1="252.7266" x2="219.7508" y2="171.6182">
		<stop  offset="4.469140e-03" style="stop-color:#FFFFFF"/>
		<stop  offset="0.551" style="stop-color:#FFFFFF;stop-opacity:0.3"/>
	</linearGradient>
	<path class="st41" d="M311,292.3l-25.9-96.6c-3.6-13.6-15.8-23.1-29.9-23.4h0c-26.7-0.6-42.1,30.1-25.6,51.2
		c27.1,34.5,57,73.3,57,73.3L311,292.3z"/>
	<g>
		<path class="st42" d="M139.8,306.6c-1.4,0-2.7-0.1-3.8-0.4l0.4-2.1c4.4,0.9,11.5,0,13.5-4.2c0.6-1.3,0.6-2.9,0-4.1
			c-0.7-1.3-1.7-2.2-3.1-2.6c-2.7-0.8-6.2,0.1-8.5,1.4l-1.1-1.9c2.5-1.4,6.7-2.7,10.2-1.6c2,0.6,3.5,1.9,4.4,3.7c0.9,1.9,1,4.2,0,6
			C149.8,305.1,144.4,306.6,139.8,306.6z"/>
	</g>
	<path class="st43" d="M129.6,313.8h-7.4c-7.6,0-13.7-6.1-13.7-13.7V286h34.8v14.2C143.3,307.7,137.2,313.8,129.6,313.8z"/>
	<path class="st43" d="M153,316H99.4c-0.9,0-1.6-0.7-1.6-1.6l0,0c0-0.9,0.7-1.6,1.6-1.6H153c0.9,0,1.6,0.7,1.6,1.6l0,0
		C154.6,315.3,153.9,316,153,316z"/>
	<path class="st44" d="M355.1,280c0.3-1.9,0.9-3.7,2.5-4.5c2.2-1.3,5.1-0.2,7.6-0.7c7.1-1.3,7-11.2,6.9-16.6
		c-0.1-3.5-0.2-6.9-0.5-10.4c-0.1-0.9-0.1-1.9-0.6-2.7c-0.9-1.4-2.8-1.8-4.4-1.4c-3.1,0.9-4.8,4.2-5.4,7.4s-0.3,6.5-1.1,9.6
		c-0.2,0.6-0.4,1.2-0.7,1.7c-0.4,0.6-0.9,1-1.5,1.3c-0.9,0.4-2,0.5-2.9,0c-1-0.6-0.8-1.4-0.8-2.4c0-1.1-0.2-2.3-0.3-3.5
		c-0.3-2.6-0.6-5.2-0.8-7.8c-0.5-5.1-0.9-10.3-1.4-15.4c-0.2-2.3-0.5-4.8-1.7-6.9c-5.1-9.1-12.8-1.1-13.5,5.5
		c-1.6,15.1,6.2,29.3,5.6,44.3c0,0.6-0.1,1.3-0.3,1.9c-1.2,2.4-5,1.9-6.7,0.6c-2.7-2.1-1.8-6.8-1.8-9.5c0-2.3-0.7-4.8-2.9-5.9
		c-2.5-1.2-5.7,0.2-7.2,2.5c-1.8,2.9-1.6,7.8-1.4,11c0.2,2.3,0.7,4.6,2.1,6.6c1.4,2,3.6,3.5,6.1,3.6c1.5,0.1,3.1-0.2,4.2,0.7
		c1.4,1.1,0.9,3,0.9,4.7c0.1,3.2,2.9,6,6.1,7.4c3.2,1.4,6.9,1.6,10.4,1.8c3-4.8,3.2-10.4,3.4-15.8C355,285.3,354.8,282.5,355.1,280z
		"/>
	<path class="st0" d="M324,317.2H200.2c-1.4,0-2.5-1.1-2.5-2.5v-0.9c0-1.4,1.1-2.5,2.5-2.5H324c1.4,0,2.5,1.1,2.5,2.5v0.9
		C326.5,316.1,325.3,317.2,324,317.2z"/>
	<path class="st0" d="M326.9,317.2h-110l9.6-63.2c0.3-2.2,2.2-3.8,4.4-3.8h101.3c2.6,0,4.6,2.4,4.2,5L326.9,317.2z"/>
	<path class="st45" d="M363.3,322H43.9c-1.7,0-3-1.3-3-3v-1c0-1.7,1.3-3,3-3h319.4c1.7,0,3,1.3,3,3v1
		C366.3,320.7,364.9,322,363.3,322z"/>
	<path class="st46" d="M396,133.4c2.5,15.7,3.5,32.5-3.7,46.7c-4,7.9-10.3,14.4-13.9,22.6c-3.8,8.7-5.2,17.7-6.1,27.1"/>
	<path class="st46" d="M72.3,107.2c-10,12.1-24.8,18.9-36.8,29C16.1,152.5,4.6,177.8,5,203.1"/>
	<path class="st46" d="M291.3,7.1c16.3,5.1,30.2,17.4,37.2,33"/>
	<path class="st46" d="M63.7,341.5c22,19.4,50.6,31.2,79.8,33"/>
	<path class="st1" d="M283.1,347.3c5.4-2.4,10.6-5.1,15.7-8"/>
	<path class="st1" d="M210.1,362c21.3-0.9,39.7-1.9,62.7-11"/>
	<ellipse class="st43" cx="245" cy="205.8" rx="1.5" ry="2.5"/>
</g>
<g id="DESIGNED_BY_FREEPIK">
</g>
</svg>
